<svg xmlns="http://www.w3.org/2000/svg" viewBox="0 0 10833.0 650" width="1083" height="65" role="img" aria-label="Wayne Omni"><title>Wayne Omni</title><path fill="#F2F1EC" d="M358 650 0 10H282L584 605L489 607L772 10H1074L1357 607L1262 605L1564 10H1842L1488 650H1150L874 111H972L696 650Z M2096 553V403H2780V553ZM1872 650 2301 10H2579L3012 650H2737L2366 77H2515L2147 650Z M4087 10 3682 487V650H3432V487L3027 10H3322L3651 425H3466L3792 10Z M5165 454 5072 507V10H5322V650H5072L4319 214L4412 160V650H4162V10H4412Z M5712 380V460H6472V650H5462V10H6470V200H5712V280H6332V380Z M8482.0 574H8332.0L8878.0 10H9128.0V650H8878.0V214L8953.0 245L8558.0 650H8258.0L7862.0 246L7938.0 215V650H7688.0V10H7938.0Z M10271.0 454 10178.0 507V10H10428.0V650H10178.0L9425.0 214L9518.0 160V650H9268.0V10H9518.0Z M10583.0 10H10833.0V650H10583.0Z"/><circle cx="7210.0" cy="325.0" r="287.3" fill="none" stroke="#F2F1EC" stroke-width="101.4"/><circle cx="7210.0" cy="325.0" r="121.7" fill="#D4FF3A" stroke="#F2F1EC" stroke-width="33.8"/></svg>